<svg id="Layer_1" data-name="Layer 1" xmlns="http://www.w3.org/2000/svg" xmlns:xlink="http://www.w3.org/1999/xlink" viewBox="0 0 533.09 126.93"><defs><style>.cls-1{fill:none;}.cls-2{clip-path:url(#clip-path);}.cls-3{fill:#090642;}</style><clipPath id="clip-path"><rect class="cls-1" width="533.09" height="126.93"/></clipPath></defs><g class="cls-2"><path class="cls-3" d="M59.23,100.36a36.9,36.9,0,1,1,36.89-36.9A36.94,36.94,0,0,1,59.23,100.36Zm0-70.9a34,34,0,1,0,34,34A34,34,0,0,0,59.23,29.46Z"/><path class="cls-3" d="M72.28,68.42A6.71,6.71,0,1,0,79,75.13,6.72,6.72,0,0,0,72.28,68.42Zm0,10.94a4.23,4.23,0,1,1,4.23-4.23A4.24,4.24,0,0,1,72.28,79.36Z"/><path class="cls-3" d="M77.65,42.48c-10,2.35-16.23,8.41-18.91,18.67a17.49,17.49,0,0,1-17-17.46,1.24,1.24,0,0,0-2.48,0,20,20,0,0,0,18.9,19.92,58,58,0,0,0-1,11.13c-2.61-4.36-7.29-8.84-15.72-10.51l-1.58-.32.1,1.61c0,.17,1.23,17.14,19,20.51l1.52.29s-.21-1.51-.56-4.77a64.51,64.51,0,0,1,.79-18A20,20,0,0,0,79.18,43.69V42.12ZM42.71,67.05C53.06,69.79,56.4,77.29,57.48,81.64c0,.51.07,1,.12,1.52A20,20,0,0,1,42.71,67.05Zm18.68-6c2.42-8.29,7.45-13.41,15.23-15.7A17.49,17.49,0,0,1,61.39,61Z"/><path class="cls-3" d="M124.46,76.1v-12l-9.41-13a1.4,1.4,0,0,1,1.13-2.34A2,2,0,0,1,118,49.92l8.2,11.31,8.16-11.31a2.1,2.1,0,0,1,1.82-1.09c1.29,0,1.86,1.17,1,2.38l-9.41,13V76.1a1.55,1.55,0,0,1-1.66,1.78A1.57,1.57,0,0,1,124.46,76.1Z"/><path class="cls-3" d="M138.93,63.47c0-9,5-14.58,13-14.58S165,54.51,165,63.43,159.94,78.1,151.94,78.1,138.93,72.44,138.93,63.47Zm22.58,0c0-7.39-3.47-11.63-9.57-11.63s-9.49,4.28-9.49,11.63,3.47,11.68,9.49,11.68S161.51,70.83,161.51,63.47Z"/><path class="cls-3" d="M169.91,66.32V50.53a1.66,1.66,0,1,1,3.32,0V66.16c0,5.94,2.78,8.85,8.12,8.85s8-2.91,8-8.85V50.53a1.54,1.54,0,0,1,1.7-1.7,1.52,1.52,0,0,1,1.62,1.7V66.32c0,7.6-3.92,11.64-11.35,11.64S169.91,73.92,169.91,66.32Z"/><path class="cls-3" d="M199.78,76.14V50.81a1.54,1.54,0,0,1,1.7-1.7h9.57c6.1,0,9.5,3,9.5,8.24,0,4.21-2.39,7-6.59,7.8a6.12,6.12,0,0,1,3.19,3.15L221,75.53c.61,1.17.2,2.35-1.13,2.35a1.93,1.93,0,0,1-1.9-1.26l-4.4-8.16c-1.25-2.3-2.71-2.9-5.33-2.9H203.1V76.14a1.54,1.54,0,0,1-1.66,1.74A1.56,1.56,0,0,1,199.78,76.14Zm3.32-13.21h7.47c4.44,0,6.71-1.9,6.71-5.58s-2.27-5.49-6.71-5.49H203.1Z"/><path class="cls-3" d="M227.92,75.31c-1.69-1.17-.4-3.8,1.38-2.63a13.86,13.86,0,0,0,8.52,2.47c4.85,0,7.15-2,7.15-4.93,0-2.38-1.57-3.68-5.53-4.48l-4.2-.85c-5.09-1-7.56-3.48-7.56-7.56,0-5,4.24-8.44,10.38-8.44a13.62,13.62,0,0,1,8.73,2.83c1.53,1.17.28,3.64-1.58,2.42a11.14,11.14,0,0,0-7.19-2.3c-4.28,0-7,2.14-7,5.37,0,2.59,1.49,4,5.09,4.73l4.2.89c5.41,1.13,8,3.27,8,7.23,0,4.77-4,8-10.5,8A17,17,0,0,1,227.92,75.31Z"/><path class="cls-3" d="M256.48,77.59a1.64,1.64,0,0,1-1.82-1.82V50.93a1.64,1.64,0,0,1,1.82-1.82h15a1.27,1.27,0,0,1,1.41,1.38,1.29,1.29,0,0,1-1.41,1.41H257.89v9.86h12.77a1.24,1.24,0,0,1,1.41,1.37,1.27,1.27,0,0,1-1.41,1.41H257.89V74.81h13.62a1.39,1.39,0,1,1,0,2.78Z"/><path class="cls-3" d="M281.93,77.59a1.56,1.56,0,0,1-1.7-1.73V50.65a1.66,1.66,0,1,1,3.31,0v24h13.25a1.46,1.46,0,1,1,0,2.91Z"/><path class="cls-3" d="M304.18,76.06V50.93A1.64,1.64,0,0,1,306,49.11h14.67a1.27,1.27,0,0,1,1.41,1.38,1.29,1.29,0,0,1-1.41,1.41H307.5v9.94h12.32a1.29,1.29,0,0,1,1.45,1.37,1.33,1.33,0,0,1-1.45,1.42H307.5V76.06c0,1.17-.53,1.82-1.54,1.82A1.63,1.63,0,0,1,304.18,76.06Z"/><path class="cls-3" d="M347.66,77.59a1.64,1.64,0,0,1-1.82-1.82V50.93a1.64,1.64,0,0,1,1.82-1.82h9.58c5.85,0,9.21,2.71,9.21,7.44A6.5,6.5,0,0,1,361.88,63a6.58,6.58,0,0,1,5.25,6.79c0,5.09-3.43,7.83-9.41,7.83Zm1.42-15.75h7.67c4.24,0,6.42-1.74,6.42-5s-2.18-5-6.42-5h-7.67Zm0,13.09h8.32c4.32,0,6.46-1.7,6.46-5.21s-2.14-5.22-6.46-5.22h-8.32Z"/><path class="cls-3" d="M377,77.59a1.64,1.64,0,0,1-1.82-1.82V50.93A1.64,1.64,0,0,1,377,49.11h15a1.27,1.27,0,0,1,1.41,1.38A1.29,1.29,0,0,1,392,51.9H378.4v9.86h12.77a1.24,1.24,0,0,1,1.41,1.37,1.27,1.27,0,0,1-1.41,1.41H378.4V74.81H392a1.39,1.39,0,1,1,0,2.78Z"/><path class="cls-3" d="M399.16,75.61l11.11-25.28a2.16,2.16,0,0,1,2-1.5,2.09,2.09,0,0,1,1.94,1.5l11.15,25.28c.56,1.3.08,2.27-1.17,2.27-1,0-1.5-.53-1.9-1.5l-2.63-6.06H404.82l-2.59,6.06c-.48,1.05-1,1.5-1.82,1.5C399.12,77.88,398.6,76.91,399.16,75.61Zm13-22.62L406,67.53h12.44L412.29,53Z"/><path class="cls-3" d="M431.24,66.32V50.53a1.66,1.66,0,1,1,3.31,0V66.16c0,5.94,2.79,8.85,8.12,8.85s8-2.91,8-8.85V50.53a1.54,1.54,0,0,1,1.7-1.7,1.51,1.51,0,0,1,1.61,1.7V66.32C454,73.92,450.1,78,442.67,78S431.24,73.92,431.24,66.32Z"/><path class="cls-3" d="M468.17,76.14V52h-9.09a1.37,1.37,0,0,1-1.53-1.45,1.35,1.35,0,0,1,1.53-1.42h21.53a1.44,1.44,0,1,1,0,2.87h-9.09V76.14a1.68,1.68,0,1,1-3.35,0Z"/><path class="cls-3" d="M494.75,76.1v-12l-9.41-13a1.4,1.4,0,0,1,1.13-2.34,2.05,2.05,0,0,1,1.82,1.09l8.2,11.31,8.16-11.31a2.08,2.08,0,0,1,1.81-1.09c1.3,0,1.86,1.17,1,2.38l-9.41,13V76.1c0,1.13-.56,1.78-1.65,1.78A1.57,1.57,0,0,1,494.75,76.1Z"/></g></svg>